<mxfile host="app.diagrams.net" modified="2023-04-19T13:47:34.953Z" agent="Mozilla/5.0 (Macintosh; Intel Mac OS X 10_15_7) AppleWebKit/605.1.15 (KHTML, like Gecko) Version/16.3.1 Safari/605.1.15" etag="cVIik9HJPIFSW8m3FlY0" version="21.2.0" type="github">
  <diagram name="Page-1" id="OyKBPnsSxiUxUv3Rsae8">
    <mxGraphModel dx="794" dy="561" grid="1" gridSize="10" guides="1" tooltips="1" connect="1" arrows="1" fold="1" page="1" pageScale="1" pageWidth="850" pageHeight="1100" math="0" shadow="0">
      <root>
        <mxCell id="0" />
        <mxCell id="1" parent="0" />
        <mxCell id="BbD5o9TnXIsRnzcrsnNp-39" style="edgeStyle=orthogonalEdgeStyle;rounded=0;orthogonalLoop=1;jettySize=auto;html=1;exitX=0.5;exitY=1;exitDx=0;exitDy=0;entryX=0.5;entryY=0;entryDx=0;entryDy=0;" edge="1" parent="1" source="BbD5o9TnXIsRnzcrsnNp-1" target="BbD5o9TnXIsRnzcrsnNp-38">
          <mxGeometry relative="1" as="geometry">
            <Array as="points">
              <mxPoint x="150" y="290" />
              <mxPoint x="280" y="290" />
            </Array>
          </mxGeometry>
        </mxCell>
        <mxCell id="BbD5o9TnXIsRnzcrsnNp-1" value="&lt;b&gt;MI-3466&lt;/b&gt;: Flow: Product Listing Page - Categories Tab Group" style="rounded=1;whiteSpace=wrap;html=1;" vertex="1" parent="1">
          <mxGeometry x="90" y="210" width="120" height="60" as="geometry" />
        </mxCell>
        <mxCell id="BbD5o9TnXIsRnzcrsnNp-9" style="edgeStyle=orthogonalEdgeStyle;rounded=0;orthogonalLoop=1;jettySize=auto;html=1;entryX=0.5;entryY=0;entryDx=0;entryDy=0;exitX=0.5;exitY=1;exitDx=0;exitDy=0;" edge="1" parent="1" source="BbD5o9TnXIsRnzcrsnNp-4" target="BbD5o9TnXIsRnzcrsnNp-1">
          <mxGeometry relative="1" as="geometry" />
        </mxCell>
        <mxCell id="BbD5o9TnXIsRnzcrsnNp-10" style="edgeStyle=orthogonalEdgeStyle;rounded=0;orthogonalLoop=1;jettySize=auto;html=1;entryX=0.5;entryY=0;entryDx=0;entryDy=0;" edge="1" parent="1" source="BbD5o9TnXIsRnzcrsnNp-4" target="BbD5o9TnXIsRnzcrsnNp-6">
          <mxGeometry relative="1" as="geometry" />
        </mxCell>
        <mxCell id="BbD5o9TnXIsRnzcrsnNp-11" style="edgeStyle=orthogonalEdgeStyle;rounded=0;orthogonalLoop=1;jettySize=auto;html=1;entryX=0.5;entryY=0;entryDx=0;entryDy=0;exitX=0.5;exitY=1;exitDx=0;exitDy=0;" edge="1" parent="1" source="BbD5o9TnXIsRnzcrsnNp-4" target="BbD5o9TnXIsRnzcrsnNp-7">
          <mxGeometry relative="1" as="geometry" />
        </mxCell>
        <mxCell id="BbD5o9TnXIsRnzcrsnNp-12" style="edgeStyle=orthogonalEdgeStyle;rounded=0;orthogonalLoop=1;jettySize=auto;html=1;exitX=0.5;exitY=1;exitDx=0;exitDy=0;" edge="1" parent="1" source="BbD5o9TnXIsRnzcrsnNp-4" target="BbD5o9TnXIsRnzcrsnNp-8">
          <mxGeometry relative="1" as="geometry" />
        </mxCell>
        <mxCell id="BbD5o9TnXIsRnzcrsnNp-4" value="&lt;b&gt;MI-2797&lt;/b&gt;: Prerequisites: Accessory API Updates" style="rounded=1;whiteSpace=wrap;html=1;" vertex="1" parent="1">
          <mxGeometry x="220" y="30" width="120" height="60" as="geometry" />
        </mxCell>
        <mxCell id="BbD5o9TnXIsRnzcrsnNp-13" style="edgeStyle=orthogonalEdgeStyle;rounded=0;orthogonalLoop=1;jettySize=auto;html=1;entryX=0.5;entryY=0;entryDx=0;entryDy=0;exitX=0.5;exitY=1;exitDx=0;exitDy=0;" edge="1" parent="1" source="BbD5o9TnXIsRnzcrsnNp-5" target="BbD5o9TnXIsRnzcrsnNp-1">
          <mxGeometry relative="1" as="geometry" />
        </mxCell>
        <mxCell id="BbD5o9TnXIsRnzcrsnNp-14" style="edgeStyle=orthogonalEdgeStyle;rounded=0;orthogonalLoop=1;jettySize=auto;html=1;entryX=0.5;entryY=0;entryDx=0;entryDy=0;exitX=0.5;exitY=1;exitDx=0;exitDy=0;" edge="1" parent="1" source="BbD5o9TnXIsRnzcrsnNp-5" target="BbD5o9TnXIsRnzcrsnNp-6">
          <mxGeometry relative="1" as="geometry" />
        </mxCell>
        <mxCell id="BbD5o9TnXIsRnzcrsnNp-15" style="edgeStyle=orthogonalEdgeStyle;rounded=0;orthogonalLoop=1;jettySize=auto;html=1;entryX=0.5;entryY=0;entryDx=0;entryDy=0;exitX=0.5;exitY=1;exitDx=0;exitDy=0;" edge="1" parent="1" source="BbD5o9TnXIsRnzcrsnNp-5" target="BbD5o9TnXIsRnzcrsnNp-7">
          <mxGeometry relative="1" as="geometry" />
        </mxCell>
        <mxCell id="BbD5o9TnXIsRnzcrsnNp-5" value="&lt;b&gt;MI-2799&lt;/b&gt;: Prerequisites: New order type" style="rounded=1;whiteSpace=wrap;html=1;" vertex="1" parent="1">
          <mxGeometry x="425" y="30" width="120" height="60" as="geometry" />
        </mxCell>
        <mxCell id="BbD5o9TnXIsRnzcrsnNp-40" style="edgeStyle=orthogonalEdgeStyle;rounded=0;orthogonalLoop=1;jettySize=auto;html=1;exitX=0.5;exitY=1;exitDx=0;exitDy=0;entryX=0.5;entryY=0;entryDx=0;entryDy=0;" edge="1" parent="1" source="BbD5o9TnXIsRnzcrsnNp-6" target="BbD5o9TnXIsRnzcrsnNp-38">
          <mxGeometry relative="1" as="geometry">
            <mxPoint x="330" y="310" as="targetPoint" />
          </mxGeometry>
        </mxCell>
        <mxCell id="BbD5o9TnXIsRnzcrsnNp-6" value="&lt;b&gt;MI-3467&lt;/b&gt;: Flow: Product Listing Page - Accessory Cards and Vehicle Filtering" style="rounded=1;whiteSpace=wrap;html=1;" vertex="1" parent="1">
          <mxGeometry x="220" y="210" width="120" height="60" as="geometry" />
        </mxCell>
        <mxCell id="BbD5o9TnXIsRnzcrsnNp-42" style="edgeStyle=orthogonalEdgeStyle;rounded=0;orthogonalLoop=1;jettySize=auto;html=1;exitX=0.5;exitY=1;exitDx=0;exitDy=0;entryX=0.5;entryY=0;entryDx=0;entryDy=0;" edge="1" parent="1" source="BbD5o9TnXIsRnzcrsnNp-7" target="BbD5o9TnXIsRnzcrsnNp-38">
          <mxGeometry relative="1" as="geometry">
            <Array as="points">
              <mxPoint x="410" y="290" />
              <mxPoint x="280" y="290" />
            </Array>
          </mxGeometry>
        </mxCell>
        <mxCell id="BbD5o9TnXIsRnzcrsnNp-7" value="&lt;b&gt;MI-3468&lt;/b&gt;: Flow: Product Listing Page - Searching and Sorting" style="rounded=1;whiteSpace=wrap;html=1;" vertex="1" parent="1">
          <mxGeometry x="350" y="210" width="120" height="60" as="geometry" />
        </mxCell>
        <mxCell id="BbD5o9TnXIsRnzcrsnNp-19" value="" style="edgeStyle=orthogonalEdgeStyle;rounded=0;orthogonalLoop=1;jettySize=auto;html=1;" edge="1" parent="1" source="BbD5o9TnXIsRnzcrsnNp-8" target="BbD5o9TnXIsRnzcrsnNp-18">
          <mxGeometry relative="1" as="geometry" />
        </mxCell>
        <mxCell id="BbD5o9TnXIsRnzcrsnNp-25" style="edgeStyle=orthogonalEdgeStyle;rounded=0;orthogonalLoop=1;jettySize=auto;html=1;entryX=0.5;entryY=0;entryDx=0;entryDy=0;exitX=0.5;exitY=1;exitDx=0;exitDy=0;" edge="1" parent="1" source="BbD5o9TnXIsRnzcrsnNp-8" target="BbD5o9TnXIsRnzcrsnNp-26">
          <mxGeometry relative="1" as="geometry">
            <mxPoint x="450" y="390" as="targetPoint" />
            <Array as="points">
              <mxPoint x="610" y="320" />
              <mxPoint x="460" y="320" />
            </Array>
          </mxGeometry>
        </mxCell>
        <mxCell id="BbD5o9TnXIsRnzcrsnNp-43" style="edgeStyle=orthogonalEdgeStyle;rounded=0;orthogonalLoop=1;jettySize=auto;html=1;exitX=0.5;exitY=1;exitDx=0;exitDy=0;entryX=0.5;entryY=0;entryDx=0;entryDy=0;" edge="1" parent="1" source="BbD5o9TnXIsRnzcrsnNp-8" target="BbD5o9TnXIsRnzcrsnNp-38">
          <mxGeometry relative="1" as="geometry">
            <Array as="points">
              <mxPoint x="610" y="300" />
              <mxPoint x="280" y="300" />
            </Array>
          </mxGeometry>
        </mxCell>
        <mxCell id="BbD5o9TnXIsRnzcrsnNp-8" value="&lt;b&gt;MI-3470&lt;/b&gt;: Flow: Your Cart Page" style="rounded=1;whiteSpace=wrap;html=1;" vertex="1" parent="1">
          <mxGeometry x="550" y="210" width="120" height="60" as="geometry" />
        </mxCell>
        <mxCell id="BbD5o9TnXIsRnzcrsnNp-22" value="" style="edgeStyle=orthogonalEdgeStyle;rounded=0;orthogonalLoop=1;jettySize=auto;html=1;" edge="1" parent="1" source="BbD5o9TnXIsRnzcrsnNp-18" target="BbD5o9TnXIsRnzcrsnNp-21">
          <mxGeometry relative="1" as="geometry" />
        </mxCell>
        <mxCell id="BbD5o9TnXIsRnzcrsnNp-18" value="&lt;b&gt;MI-3615&lt;/b&gt;: Flow: Shipping Method Page" style="whiteSpace=wrap;html=1;rounded=1;" vertex="1" parent="1">
          <mxGeometry x="550" y="350" width="120" height="60" as="geometry" />
        </mxCell>
        <mxCell id="BbD5o9TnXIsRnzcrsnNp-29" value="" style="edgeStyle=orthogonalEdgeStyle;rounded=0;orthogonalLoop=1;jettySize=auto;html=1;entryX=0.5;entryY=0;entryDx=0;entryDy=0;exitX=0.5;exitY=1;exitDx=0;exitDy=0;" edge="1" parent="1" source="BbD5o9TnXIsRnzcrsnNp-21" target="BbD5o9TnXIsRnzcrsnNp-27">
          <mxGeometry relative="1" as="geometry" />
        </mxCell>
        <mxCell id="BbD5o9TnXIsRnzcrsnNp-21" value="&lt;b&gt;MI-3616&lt;/b&gt;: Flow: Delivery Page" style="whiteSpace=wrap;html=1;rounded=1;" vertex="1" parent="1">
          <mxGeometry x="550" y="440" width="120" height="60" as="geometry" />
        </mxCell>
        <mxCell id="BbD5o9TnXIsRnzcrsnNp-28" value="" style="edgeStyle=orthogonalEdgeStyle;rounded=0;orthogonalLoop=1;jettySize=auto;html=1;" edge="1" parent="1" source="BbD5o9TnXIsRnzcrsnNp-26" target="BbD5o9TnXIsRnzcrsnNp-27">
          <mxGeometry relative="1" as="geometry" />
        </mxCell>
        <mxCell id="BbD5o9TnXIsRnzcrsnNp-26" value="&lt;b&gt;MI-3617&lt;/b&gt;: Flow: Pickup Page" style="rounded=1;whiteSpace=wrap;html=1;" vertex="1" parent="1">
          <mxGeometry x="400" y="350" width="120" height="60" as="geometry" />
        </mxCell>
        <mxCell id="BbD5o9TnXIsRnzcrsnNp-31" value="" style="edgeStyle=orthogonalEdgeStyle;rounded=0;orthogonalLoop=1;jettySize=auto;html=1;entryX=0.5;entryY=0;entryDx=0;entryDy=0;exitX=0.5;exitY=1;exitDx=0;exitDy=0;" edge="1" parent="1" source="BbD5o9TnXIsRnzcrsnNp-27" target="BbD5o9TnXIsRnzcrsnNp-30">
          <mxGeometry relative="1" as="geometry" />
        </mxCell>
        <mxCell id="BbD5o9TnXIsRnzcrsnNp-35" value="" style="edgeStyle=orthogonalEdgeStyle;rounded=0;orthogonalLoop=1;jettySize=auto;html=1;" edge="1" parent="1" source="BbD5o9TnXIsRnzcrsnNp-27" target="BbD5o9TnXIsRnzcrsnNp-34">
          <mxGeometry relative="1" as="geometry" />
        </mxCell>
        <mxCell id="BbD5o9TnXIsRnzcrsnNp-27" value="&lt;b&gt;MI-3618&lt;/b&gt;: Flow: Summary and Payment Page" style="whiteSpace=wrap;html=1;rounded=1;" vertex="1" parent="1">
          <mxGeometry x="400" y="550" width="120" height="60" as="geometry" />
        </mxCell>
        <mxCell id="BbD5o9TnXIsRnzcrsnNp-33" value="" style="edgeStyle=orthogonalEdgeStyle;rounded=0;orthogonalLoop=1;jettySize=auto;html=1;" edge="1" parent="1" source="BbD5o9TnXIsRnzcrsnNp-30" target="BbD5o9TnXIsRnzcrsnNp-32">
          <mxGeometry relative="1" as="geometry" />
        </mxCell>
        <mxCell id="BbD5o9TnXIsRnzcrsnNp-30" value="&lt;b&gt;MI-3619&lt;/b&gt;: Flow: Thank you Page" style="whiteSpace=wrap;html=1;rounded=1;" vertex="1" parent="1">
          <mxGeometry x="200" y="670" width="120" height="60" as="geometry" />
        </mxCell>
        <mxCell id="BbD5o9TnXIsRnzcrsnNp-32" value="&lt;b&gt;MI-3614&lt;/b&gt;: Flow: Order Receipt Page" style="whiteSpace=wrap;html=1;rounded=1;" vertex="1" parent="1">
          <mxGeometry x="200" y="770" width="120" height="60" as="geometry" />
        </mxCell>
        <mxCell id="BbD5o9TnXIsRnzcrsnNp-37" value="" style="edgeStyle=orthogonalEdgeStyle;rounded=0;orthogonalLoop=1;jettySize=auto;html=1;" edge="1" parent="1" source="BbD5o9TnXIsRnzcrsnNp-34" target="BbD5o9TnXIsRnzcrsnNp-36">
          <mxGeometry relative="1" as="geometry" />
        </mxCell>
        <mxCell id="BbD5o9TnXIsRnzcrsnNp-34" value="&lt;b&gt;MI-3620&lt;/b&gt;: Flow: Order Selection Page" style="whiteSpace=wrap;html=1;rounded=1;" vertex="1" parent="1">
          <mxGeometry x="365" y="670" width="120" height="60" as="geometry" />
        </mxCell>
        <mxCell id="BbD5o9TnXIsRnzcrsnNp-36" value="&lt;b&gt;MI-3621&lt;/b&gt;: Flow: Order Accessories Page" style="whiteSpace=wrap;html=1;rounded=1;" vertex="1" parent="1">
          <mxGeometry x="365" y="770" width="120" height="60" as="geometry" />
        </mxCell>
        <mxCell id="BbD5o9TnXIsRnzcrsnNp-38" value="&lt;b&gt;MI-2801&lt;/b&gt;: Flow: Add Featured Accessories" style="rounded=1;whiteSpace=wrap;html=1;" vertex="1" parent="1">
          <mxGeometry x="220" y="350" width="120" height="60" as="geometry" />
        </mxCell>
      </root>
    </mxGraphModel>
  </diagram>
</mxfile>
